<svg viewBox="0 0 104 26" fill="none" xmlns="http://www.w3.org/2000/svg"><path d="m42.556 11.617 1.333-2.703h2.239l-2.27 4.034 2.328 4.13H43.94l-1.353-2.762-1.356 2.761h-2.239l2.328-4.129-2.27-4.034h2.24l1.266 2.703Zm7.128 2.553h-1.06v2.882h-1.94V8.914h3.178c.971 0 1.707.208 2.239.655a2.201 2.201 0 0 1 .824 1.81c.017.5-.105.994-.353 1.426a2.52 2.52 0 0 1-1.06.921l1.678 3.295v.09h-2.092l-1.414-2.94Zm-1.031-1.513h1.238a1.001 1.001 0 0 0 .825-.298c.196-.231.3-.527.293-.832a1.106 1.106 0 0 0-.293-.831 1.049 1.049 0 0 0-.825-.296h-1.238v2.257Zm7.306 1.632v2.763h-1.94V8.914h3.24a3.65 3.65 0 0 1 1.65.356c.452.22.836.558 1.112.98.266.437.4.944.382 1.457a2.376 2.376 0 0 1-.853 1.9c-.56.476-1.334.713-2.328.713h-1.265l.002-.031Zm0-1.513h1.265a1.07 1.07 0 0 0 .856-.298.996.996 0 0 0 .294-.803c.02-.332-.085-.66-.294-.919a1.028 1.028 0 0 0-.825-.356H55.96v2.376Zm10.004 2.79h3.394v1.516H64V8.914h1.945v6.652h.018Zm9.131-1.959H72.04v1.96h3.623v1.515h-5.557V8.914h5.597v1.515H72.08v1.722h3.034l-.02 1.457Zm1.236 3.445V8.914h2.62a3.95 3.95 0 0 1 1.966.5 3.35 3.35 0 0 1 1.334 1.396c.32.615.492 1.296.502 1.99v.386a4.187 4.187 0 0 1-.471 2.017 3.597 3.597 0 0 1-1.354 1.413 3.558 3.558 0 0 1-1.887.488h-2.7l-.01-.052Zm1.945-6.623v5.137h.667a1.544 1.544 0 0 0 1.307-.594c.296-.413.445-1.007.445-1.781v-.357c0-.802-.149-1.396-.445-1.782a1.577 1.577 0 0 0-1.334-.594h-.647l.007-.029Zm11.94 5.642a3.16 3.16 0 0 1-1.335.802c-.616.21-1.263.31-1.913.298-1.06 0-1.916-.327-2.534-.982-.619-.654-.972-1.568-1.032-2.732v-.713c-.01-.723.13-1.441.413-2.106a3.285 3.285 0 0 1 1.208-1.397 3.423 3.423 0 0 1 1.827-.475c1 0 1.796.238 2.356.713.56.475.89 1.159.971 2.078h-1.885a1.534 1.534 0 0 0-.444-.98 1.326 1.326 0 0 0-.93-.296 1.308 1.308 0 0 0-1.149.623 3.313 3.313 0 0 0-.41 1.793v.505c0 .802.146 1.425.41 1.842.265.417.707.623 1.296.623a1.66 1.66 0 0 0 1.15-.356v-1.278H86.86v-1.345h3.299v3.383h.055Zm6.039-2.466H93.19v1.96h3.62v1.514h-5.557V8.914h5.598v1.515h-3.624v1.722h3.064v1.457l-.038-.003Zm4.27.563h-1.06v2.884H97.49V8.914h3.181c.973 0 1.709.208 2.238.655a2.195 2.195 0 0 1 .825 1.81c.017.5-.106.994-.354 1.426a2.511 2.511 0 0 1-1.06.921l1.681 3.295v.09h-2.092l-1.385-2.943Zm-1.06-1.513h1.236a1.003 1.003 0 0 0 .824-.298c.193-.232.295-.527.287-.83a1.111 1.111 0 0 0-.293-.831 1.047 1.047 0 0 0-.818-.296h-1.239l.003 2.255ZM7.869 1.614h.622V0H7.87a4.983 4.983 0 0 0-3.554 1.482 5.098 5.098 0 0 0-1.47 3.583v3.676a3.062 3.062 0 0 1-.821 2.095A3.013 3.013 0 0 1 0 11.79l.044.807-.044.806c.77.046 1.495.387 2.024.954.529.567.823 1.316.821 2.095v4.236a5.326 5.326 0 0 0 1.533 3.75A5.238 5.238 0 0 0 8.09 26v-1.614a3.633 3.633 0 0 1-2.577-1.077 3.694 3.694 0 0 1-1.068-2.599v-4.258c0-.76-.184-1.51-.536-2.182a4.642 4.642 0 0 0-1.487-1.673 4.672 4.672 0 0 0 1.483-1.676c.353-.672.538-1.42.54-2.18V5.066a3.482 3.482 0 0 1 1.007-2.437 3.425 3.425 0 0 1 2.416-1.015Zm18.496 0h-.623V0h.623a4.999 4.999 0 0 1 3.54 1.489 5.078 5.078 0 0 1 1.461 3.577V8.74a3.062 3.062 0 0 0 .822 2.095 3.013 3.013 0 0 0 2.023.954l-.044.807.044.806a3.013 3.013 0 0 0-2.023.954 3.062 3.062 0 0 0-.822 2.095v4.236a5.325 5.325 0 0 1-1.532 3.75A5.238 5.238 0 0 1 26.12 26v-1.614c.967 0 1.894-.388 2.577-1.077a3.693 3.693 0 0 0 1.069-2.599v-4.258c-.001-.76.183-1.51.536-2.182a4.642 4.642 0 0 1 1.486-1.673 4.673 4.673 0 0 1-1.483-1.676 4.715 4.715 0 0 1-.54-2.18V5.066a3.458 3.458 0 0 0-.989-2.439 3.404 3.404 0 0 0-2.411-1.013Z" fill="currentColor"/><path fill-rule="evenodd" clip-rule="evenodd" d="M25.382 6.166h-2.258l-3.568 3.559a2.763 2.763 0 0 1-3.9 0l-3.569-3.559H9.83l4.697 4.685a4.363 4.363 0 0 0 6.158 0l4.697-4.685ZM9.8 19.192h2.258l3.597-3.587a2.763 2.763 0 0 1 3.9 0l3.598 3.587h2.257l-4.726-4.713a4.363 4.363 0 0 0-6.158 0L9.8 19.192Z" fill="currentColor"/></svg>